<svg width="539" height="227" viewBox="0 0 539 227" fill="none" xmlns="http://www.w3.org/2000/svg">
<path d="M162.277 182.046C162.277 182.046 163.969 183.331 166.069 183.353C167.74 183.353 169.132 182.582 169.132 181.082C169.132 177.568 162.191 177.804 162.191 173.412C162.191 171.377 163.819 169.812 166.733 169.812C168.596 169.812 170.289 170.456 170.289 170.456L169.84 171.806C169.84 171.806 168.297 171.077 166.648 171.077C164.913 171.077 163.606 171.806 163.606 173.24C163.606 176.84 170.547 176.432 170.547 180.974C170.547 183.416 168.49 184.616 165.962 184.616C163.52 184.616 161.913 183.417 161.913 183.417L162.277 182.046Z" fill="white"/>
<path d="M173.886 170.07H182.091V171.248H175.299V176.454H180.677V177.633H175.299V183.181H182.005V184.36H173.886V170.07Z" fill="white"/>
<path d="M185.429 170.07H186.822L195.648 182.281V170.07H197.019V184.359H195.626L186.8 172.34V184.359H185.429V170.07Z" fill="white"/>
<path d="M204.768 171.248H199.583V170.07H211.473V171.248H206.16V184.359H204.767V171.248H204.768Z" fill="white"/>
<path d="M214.041 170.07H222.246V171.248H215.454V176.454H220.832V177.633H215.454V183.181H222.16V184.36H214.041V170.07Z" fill="white"/>
<path d="M225.585 170.07H228.991C232.676 170.07 234.025 171.933 234.025 173.841C234.025 176.004 232.268 177.29 230.897 177.868L235.332 184.359H233.661L229.376 178.125H226.998V184.359H225.585V170.07ZM229.483 176.926C230.662 176.926 232.482 175.962 232.482 174.012C232.482 172.619 231.497 171.248 228.711 171.248H226.997V176.926H229.483Z" fill="white"/>
<path d="M243.167 170.07H251.136V171.248H244.58V176.519H249.765V177.804H244.58V184.36H243.167V170.07Z" fill="white"/>
<path d="M260.409 169.812C264.736 169.812 267.629 172.961 267.629 176.947C267.629 180.996 264.608 184.616 260.216 184.616C255.932 184.616 252.954 181.231 252.954 177.247C252.954 173.433 255.696 169.812 260.409 169.812ZM260.28 183.395C263.944 183.395 266.086 180.181 266.086 177.118C266.086 174.033 263.986 171.034 260.28 171.034C256.574 171.034 254.474 174.119 254.474 177.097C254.475 180.096 256.574 183.395 260.28 183.395Z" fill="white"/>
<path d="M270.987 170.07H274.393C278.078 170.07 279.427 171.933 279.427 173.841C279.427 176.004 277.67 177.29 276.299 177.868L280.734 184.359H279.063L274.778 178.125H272.4V184.359H270.987V170.07ZM274.886 176.926C276.065 176.926 277.885 175.962 277.885 174.012C277.885 172.619 276.9 171.248 274.114 171.248H272.4V176.926H274.886Z" fill="white"/>
<path d="M287.82 182.046C287.82 182.046 289.512 183.331 291.612 183.353C293.283 183.353 294.675 182.582 294.675 181.082C294.675 177.568 287.734 177.804 287.734 173.412C287.734 171.377 289.362 169.812 292.276 169.812C294.139 169.812 295.832 170.456 295.832 170.456L295.383 171.806C295.383 171.806 293.84 171.077 292.191 171.077C290.456 171.077 289.149 171.806 289.149 173.24C289.149 176.84 296.09 176.432 296.09 180.974C296.09 183.416 294.033 184.616 291.505 184.616C289.063 184.616 287.456 183.417 287.456 183.417L287.82 182.046Z" fill="white"/>
<path d="M302.77 171.248H297.585V170.07H309.475V171.248H304.162V184.359H302.769L302.77 171.248Z" fill="white"/>
<path d="M311.85 170.07H313.243V178.918C313.243 182.067 315.129 183.396 317.57 183.396C319.991 183.396 321.877 182.089 321.877 179.068V170.071H323.27V178.983C323.27 182.668 320.763 184.617 317.549 184.617C314.401 184.617 311.851 183.139 311.851 179.283V170.07H311.85Z" fill="white"/>
<path d="M327.484 170.07H331.554C335.452 170.07 339.523 171.912 339.523 176.989C339.523 181.788 335.924 184.359 330.74 184.359H327.484V170.07ZM330.526 183.18C336.032 183.18 338.003 180.524 338.003 177.203C338.003 173.56 335.625 171.247 331.255 171.247H328.898V183.18H330.526Z" fill="white"/>
<path d="M342.926 170.07H351.131V171.248H344.339V176.454H349.717V177.633H344.339V183.181H351.045V184.36H342.926V170.07Z" fill="white"/>
<path d="M354.469 170.07H355.861L364.688 182.281V170.07H366.059V184.359H364.666L355.84 172.34V184.359H354.469V170.07Z" fill="white"/>
<path d="M373.809 171.248H368.624V170.07H380.514V171.248H375.201V184.359H373.808L373.809 171.248Z" fill="white"/>
<path d="M383.081 170.07H384.494V184.359H383.081V170.07Z" fill="white"/>
<path d="M388.906 170.07H390.298L399.125 182.281V170.07H400.496V184.359H399.103L390.277 172.34V184.359H388.906V170.07Z" fill="white"/>
<path d="M404.904 170.07H406.296L415.123 182.281V170.07H416.494V184.359H415.101L406.275 172.34V184.359H404.904V170.07Z" fill="white"/>
<path d="M427.309 169.812C431.636 169.812 434.529 172.961 434.529 176.947C434.529 180.996 431.508 184.616 427.116 184.616C422.832 184.616 419.854 181.231 419.854 177.247C419.853 173.433 422.596 169.812 427.309 169.812ZM427.18 183.395C430.844 183.395 432.986 180.181 432.986 177.118C432.986 174.033 430.886 171.034 427.18 171.034C423.474 171.034 421.374 174.119 421.374 177.097C421.374 180.096 423.474 183.395 427.18 183.395Z" fill="white"/>
<path d="M435.936 170.07H437.415L441.828 182.431L446.263 170.07H447.699L442.493 184.466H441.122L435.936 170.07Z" fill="white"/>
<path d="M453.265 169.963H454.615L460.142 184.359H458.642L456.864 179.668H450.952L449.174 184.359H447.738L453.265 169.963ZM451.4 178.468H456.414L453.907 171.869L451.4 178.468Z" fill="white"/>
<path d="M461.958 182.046C461.958 182.046 463.65 183.331 465.75 183.353C467.421 183.353 468.813 182.582 468.813 181.082C468.813 177.568 461.872 177.804 461.872 173.412C461.872 171.377 463.5 169.812 466.414 169.812C468.277 169.812 469.97 170.456 469.97 170.456L469.521 171.806C469.521 171.806 467.978 171.077 466.329 171.077C464.594 171.077 463.287 171.806 463.287 173.24C463.287 176.84 470.228 176.432 470.228 180.974C470.228 183.416 468.171 184.616 465.643 184.616C463.201 184.616 461.594 183.417 461.594 183.417L461.958 182.046Z" fill="white"/>
<path d="M473.587 183.031V170.07H475.001V183.031C475.001 185.195 474.188 187.744 471.81 188.108L471.189 186.994C473.287 186.737 473.587 184.359 473.587 183.031Z" fill="white"/>
<path d="M485.818 169.812C490.145 169.812 493.038 172.961 493.038 176.947C493.038 180.996 490.017 184.616 485.625 184.616C481.341 184.616 478.363 181.231 478.363 177.247C478.363 173.433 481.105 169.812 485.818 169.812ZM485.689 183.395C489.353 183.395 491.495 180.181 491.495 177.118C491.495 174.033 489.395 171.034 485.689 171.034C481.983 171.034 479.883 174.119 479.883 177.097C479.884 180.096 481.983 183.395 485.689 183.395Z" fill="white"/>
<path d="M496.396 170.07H497.788L506.615 182.281V170.07H507.986V184.359H506.593L497.767 172.34V184.359H496.396V170.07Z" fill="white"/>
<path d="M162.135 113.198H194.508V122.777H173.643V132.801H190.127V142.528H173.643V153.146H195.473V162.725H162.135V113.198Z" fill="white"/>
<path d="M204.382 113.198H215.89V162.724H204.382V113.198Z" fill="white"/>
<path d="M225.984 113.198H237.492V131.909H239.052L253.902 113.198H268.158L248.482 136.29L269.272 162.724H254.793L239.052 141.637H237.492V162.724H225.984V113.198Z" fill="white"/>
<path d="M291.912 113.198H303.42V153.145H325.027V162.724H291.911L291.912 113.198Z" fill="white"/>
<path d="M346.625 112.827H357.54L375.955 162.724H364.297L361.178 153.813H342.69L339.571 162.724H328.211L346.625 112.827ZM346.032 144.161H357.838L351.898 127.381L346.032 144.161Z" fill="white"/>
<path d="M379.593 113.198H398.081C410.852 113.198 414.861 119.361 414.861 125.078C414.861 130.127 411.52 133.469 408.846 135.473C412.039 137.181 416.939 141.117 416.939 148.32C416.939 157.082 409.96 162.724 400.01 162.724H379.591V113.198H379.593ZM391.101 133.171H400.605C400.605 133.171 402.906 131.538 402.906 128.048C402.906 125.227 401.644 122.776 396.966 122.776H391.1V133.171H391.101ZM398.897 153.145C403.204 153.145 404.986 150.918 404.986 147.65C404.986 144.68 403.13 142.379 398.897 142.379H391.101V153.145H398.897Z" fill="white"/>
<path d="M190.374 25.126L167.217 14.712C166.885 14.585 166.652 14.579 166.363 14.573L147.544 15.061C147.544 15.061 143.72 10.54 142.398 9.074C142.121 8.767 141.593 8.223 140.981 8.224L122.405 8.216C122.259 8.216 121.775 8.216 121.473 8.511L113.969 16.105L107.207 12.211C106.485 11.771 106.036 11.619 105.448 11.952L105.243 12.068L83.582 24.314C83.014 24.631 82.553 25.156 82.33 25.821L82.155 26.344L75.935 44.904L75.837 45.402C75.623 46.5 75.783 47.678 76.376 48.731C77.695 51.072 80.887 51.779 83.234 50.472C94.195 44.372 105.123 37.558 117.153 33.996C129.247 30.375 142.407 30.068 155.215 29.662C155.806 29.641 156.302 29.176 156.343 28.574C156.387 27.93 155.9 27.373 155.257 27.33C142.311 26.453 128.93 26.485 115.986 28.996C106.074 30.885 96.574 34.455 87.162 38.096L88.645 29.049L104.833 16.441C105.43 15.976 106.289 16.068 106.774 16.649L112.49 23.495C112.565 23.583 112.656 23.68 112.743 23.76C113.884 24.812 115.964 24.957 116.715 23.598C118.047 21.186 121.749 14.407 122.97 12.17C123.216 11.719 123.686 11.444 124.199 11.443L139.007 11.437C139.567 11.437 140.074 11.77 140.297 12.284L143.704 20.166C144.057 20.979 144.908 21.649 145.829 21.471C150.277 20.607 163.132 18.125 165.829 17.604C166.154 17.541 166.487 17.596 166.777 17.758L183.005 26.83C183.87 27.314 183.976 28.518 183.207 29.144L172.207 38.111C171.911 38.352 171.53 38.462 171.151 38.417L153.04 36.228L152.732 36.191C152.164 36.123 151.57 36.243 151.05 36.574C149.854 37.335 149.778 38.784 150.261 40.117C150.847 41.734 152.5 46.212 153.291 48.354C153.538 49.022 153.245 49.769 152.611 50.092L140.822 56.092C140.376 56.319 139.843 56.291 139.423 56.02L121.495 44.428L121.098 44.171C120.68 43.903 120.156 43.802 119.636 43.933C118.639 44.185 118.306 45.166 118.286 46.195C118.23 49.112 118.098 57.708 118.049 60.919C118.038 61.624 117.507 62.208 116.806 62.289L102.338 63.963L79.059 57.132L79.035 57.125C78.315 56.916 77.516 56.859 76.678 56.997C74.673 57.327 73.122 58.95 72.741 60.946V60.949C72.278 63.644 71.954 66.133 71.653 68.722C71.359 71.288 71.12 73.857 70.938 76.432C70.573 81.582 70.428 86.758 70.594 91.961C70.772 97.163 71.238 102.398 72.299 107.625C73.351 112.834 75.012 118.099 77.963 122.964L77.999 123.025C78.796 124.336 80.375 125.043 81.947 124.665L81.951 124.664C82.227 124.571 82.312 124.517 82.475 124.444L82.887 124.233C83.152 124.09 83.405 123.941 83.654 123.786C84.15 123.476 84.623 123.138 85.077 122.77C85.983 122.037 86.821 121.17 87.494 120.154C88.168 119.147 88.65 117.969 88.82 116.791C89.005 115.612 88.867 114.467 88.581 113.46L88.56 113.384C88.413 112.867 87.945 112.482 87.379 112.464C86.678 112.442 86.092 112.992 86.07 113.693C86.022 115.212 85.399 116.409 84.359 117.234C83.804 117.682 83.141 118.043 82.419 118.312C82.415 118.31 82.412 118.309 82.408 118.308C80.75 114.606 79.773 110.524 79.226 106.368C78.585 101.613 78.467 96.741 78.625 91.872C78.792 87 79.252 82.118 79.922 77.264C80.337 74.247 80.836 71.24 81.412 68.258L100.493 73.857C101.111 74.035 101.799 74.105 102.478 74.026C102.478 74.026 119.454 71.883 124.936 71.208C127.261 70.922 128.507 68.234 127.875 65.979L124.234 52.992L136.64 66.06L136.641 66.061C138.132 67.295 140.274 67.604 142.109 66.67C142.109 66.67 158.476 57.913 163.984 54.949C165.84 53.95 165.684 51.129 164.276 49.561L157.41 41.907C157.41 41.907 168.902 45.247 172.682 46.338C173.657 46.62 174.74 46.117 175.502 45.332L191.041 29.324L191.042 29.323L191.206 29.16C191.507 28.856 191.737 28.466 191.853 28.005C192.151 26.831 191.478 25.622 190.374 25.126Z" fill="white"/>
<path d="M151.482 111.867L94.789 79.135C92.397 77.754 89.34 78.573 87.959 80.965C86.578 83.357 87.397 86.414 89.789 87.795L143.982 119.084V178.774L92.289 208.619L40.596 178.774V119.084L50.694 113.254C53.086 111.873 53.905 108.816 52.524 106.424C51.144 104.033 48.086 103.213 45.694 104.594L33.096 111.867C31.549 112.76 30.596 114.411 30.596 116.197V181.661C30.596 183.447 31.549 185.098 33.096 185.991L89.789 218.722C90.562 219.168 91.426 219.392 92.289 219.392C93.152 219.392 94.016 219.168 94.789 218.722L151.482 185.991C153.029 185.097 153.982 183.447 153.982 181.661V116.198C153.982 114.411 153.029 112.76 151.482 111.867Z" fill="white"/>
<path d="M49.213 98.472C51.03 98.225 52.678 98.403 54.105 99.089C55.529 99.754 56.799 101.014 57.565 102.554C57.755 102.934 57.91 103.325 58.026 103.704L58.573 105.622C58.942 106.901 59.335 108.172 59.736 109.439C60.364 111.407 61.032 113.336 61.75 115.29C61.231 115.812 60.739 116.33 60.236 116.876C59.329 117.868 58.456 118.889 57.619 119.943C55.941 122.047 54.401 124.281 53.027 126.652C50.291 131.38 48.201 136.748 47.601 142.608C47.3 145.526 47.407 148.543 47.937 151.503C48.476 154.463 49.45 157.347 50.757 160.032C53.391 165.416 57.257 169.901 61.451 173.659C61.971 174.121 62.615 174.494 63.326 174.702L63.483 174.748L63.485 174.749C65.591 175.285 67.158 175.184 68.566 175.036C69.008 174.982 69.429 174.911 69.844 174.832L70.382 175.216C71.376 175.906 72.38 176.569 73.398 177.206C75.433 178.482 77.522 179.666 79.676 180.748C83.981 182.906 88.55 184.686 93.416 185.749C98.265 186.794 103.487 187.101 108.589 185.985C109.804 185.729 110.998 185.381 112.165 184.962C113.397 185.48 114.714 185.856 116.096 186.023C118.203 186.285 120.451 186.004 122.594 185.011C123.7 184.493 124.618 183.773 125.425 182.953C126.236 182.125 126.896 181.153 127.39 180.131C128.347 178.058 128.581 175.833 128.326 173.81C128.232 173.062 128.063 172.346 127.86 171.648C128.829 169.887 129.607 168.027 130.135 166.109C131.515 161.232 131.48 156.205 130.641 151.519C129.797 146.814 128.204 142.37 126.163 138.202C124.195 134.235 121.854 130.488 118.965 127.092C118.985 127.042 119.002 126.996 119.026 126.942L119.616 125.637C120.04 124.671 120.356 123.465 120.279 122.246C120.22 121.024 119.796 119.885 119.265 118.928C118.744 117.974 118.193 117.188 117.61 116.401C115.273 113.307 112.565 110.576 109.501 108.185C106.437 105.811 102.989 103.786 99.12 102.538C95.275 101.278 90.95 100.888 86.796 101.753L86.741 101.764C86.662 101.781 86.583 101.801 86.504 101.824C84.914 102.297 84.008 103.969 84.481 105.559C84.954 107.149 86.626 108.055 88.216 107.582C91.229 106.687 94.51 106.621 97.734 107.416C100.958 108.198 104.096 109.715 106.995 111.647C109.89 113.581 112.596 115.943 114.894 118.571C115.458 119.223 116.01 119.918 116.42 120.554C116.804 121.188 117.033 121.824 117.081 122.448C117.133 123.074 117.009 123.707 116.717 124.433C116.577 124.801 116.386 125.174 116.157 125.639C116.046 125.876 115.925 126.133 115.814 126.496C115.715 126.847 115.581 127.387 115.781 128.094L115.782 128.097C115.823 128.246 115.893 128.395 115.992 128.526L116.076 128.638C118.646 132.052 120.709 135.937 122.322 139.924C123.924 143.921 125.056 148.092 125.48 152.251C125.909 156.402 125.566 160.549 124.213 164.217C124.105 164.515 123.979 164.803 123.858 165.093C123.499 164.751 123.129 164.426 122.745 164.125C122.512 163.945 122.2 163.863 121.891 163.933C121.341 164.058 120.997 164.604 121.121 165.154L121.183 165.429C121.45 166.606 121.704 167.679 121.878 168.711C121.961 169.205 122.032 169.693 122.066 170.172C122.16 170.891 122.187 171.597 122.145 172.266C122.136 172.928 122.056 173.556 121.958 174.128C121.73 175.275 121.354 176.199 120.878 176.808C120.658 177.128 120.397 177.363 120.141 177.592C120.004 177.7 119.869 177.809 119.709 177.9C119.533 178.014 119.48 178.038 119.324 178.119C118.754 178.385 117.838 178.583 116.824 178.589C115.806 178.573 114.664 178.411 113.459 178.049C112.626 177.787 111.778 177.424 110.91 176.988C109.266 176.163 107.548 175.064 105.702 173.802L105.394 173.591C104.94 173.282 104.341 173.209 103.802 173.448C102.973 173.817 102.601 174.787 102.969 175.616C103.345 176.462 103.788 177.292 104.292 178.097C101.445 178.126 98.535 177.638 95.677 176.793C91.863 175.653 88.138 173.889 84.596 171.762C82.824 170.698 81.096 169.538 79.426 168.307C78.591 167.692 77.771 167.057 76.973 166.409L75.799 165.428C75.492 165.164 75.142 164.855 74.892 164.622C74.813 164.516 74.752 164.401 74.664 164.299C73.607 163.084 72.947 161.395 72.867 159.193C72.775 157.011 73.323 154.503 74.196 152.05C75.975 147.097 79.095 142.311 82.746 138.056C86.421 133.796 90.794 130.033 95.701 127.314C98.157 125.975 100.772 124.924 103.471 124.452C106.159 123.978 108.947 124.123 111.464 125.2L111.488 125.21C111.992 125.426 112.589 125.236 112.871 124.75C113.175 124.225 112.996 123.552 112.471 123.248C109.663 121.622 106.311 121.047 103.12 121.238C99.908 121.421 96.81 122.275 93.894 123.446C90.974 124.625 88.217 126.134 85.604 127.847C82.988 129.56 80.521 131.493 78.215 133.616C73.621 137.877 69.472 142.741 66.475 148.697C65.011 151.686 63.778 154.96 63.423 158.73C63.403 159.292 63.352 159.845 63.331 160.408C61.84 158.829 60.518 157.142 59.441 155.334C57.225 151.649 56.087 147.472 56.172 143.104C56.245 138.737 57.499 134.246 59.505 130.009C60.507 127.888 61.686 125.819 63.013 123.834C63.674 122.841 64.373 121.869 65.101 120.923C65.815 119.998 66.627 119.018 67.329 118.256L67.531 118.037C68.215 117.291 68.47 116.198 68.097 115.183C67.547 112.795 67.052 110.247 66.632 107.757C66.422 106.504 66.221 105.251 66.044 103.995L65.783 102.109C65.633 101.219 65.406 100.366 65.115 99.542C63.956 96.271 61.725 93.338 58.67 91.373C55.626 89.383 51.94 88.603 48.599 88.689L48.423 88.693C48.248 88.698 48.071 88.712 47.894 88.736C45.205 89.101 43.322 91.577 43.687 94.266C44.052 96.955 46.524 98.838 49.213 98.472Z" fill="white"/>
</svg>
