<svg width="539" height="227" viewBox="0 0 539 227" fill="none" xmlns="http://www.w3.org/2000/svg">
<path d="M153.821 113.354H199.874V126.981H170.193V141.241H193.643V155.078H170.193V170.182H201.248V183.809H153.822V113.354H153.821Z" fill="white"/>
<path d="M213.92 113.354H230.292V183.809H213.92V113.354Z" fill="white"/>
<path d="M244.651 113.354H261.023V139.972H263.242L284.367 113.354H304.648L276.657 146.205L306.232 183.809H285.635L263.243 153.811H261.024V183.809H244.652L244.651 113.354Z" fill="white"/>
<path d="M338.438 113.354H354.81V170.182H385.548V183.809H338.439V113.354H338.438Z" fill="white"/>
<path d="M416.272 112.827H431.799L457.996 183.809H441.412L436.975 171.133H410.674L406.237 183.809H390.076L416.272 112.827ZM415.427 157.402H432.221L423.771 133.531L415.427 157.402Z" fill="white"/>
<path d="M463.171 113.354H489.472C507.64 113.354 513.343 122.121 513.343 130.255C513.343 137.438 508.59 142.191 504.787 145.043C509.33 147.473 516.301 153.072 516.301 163.318C516.301 175.782 506.373 183.809 492.219 183.809H463.171V113.354ZM479.542 141.768H493.062C493.062 141.768 496.336 139.444 496.336 134.48C496.336 130.466 494.541 126.98 487.886 126.98H479.542V141.768ZM490.633 170.183C496.76 170.183 499.295 167.015 499.295 162.366C499.295 158.142 496.655 154.868 490.633 154.868H479.542V170.183H490.633Z" fill="white"/>
<path d="M182.06 25.126L158.903 14.712C158.571 14.585 158.338 14.579 158.049 14.573L139.23 15.061C139.23 15.061 135.406 10.54 134.084 9.074C133.807 8.767 133.279 8.223 132.667 8.224L114.09 8.216C113.944 8.216 113.46 8.216 113.158 8.511L105.654 16.105L98.892 12.211C98.17 11.771 97.721 11.619 97.133 11.952L96.928 12.068L75.268 24.314C74.7 24.631 74.239 25.156 74.016 25.821L73.841 26.344L67.621 44.904L67.523 45.402C67.309 46.5 67.469 47.678 68.062 48.731C69.381 51.072 72.573 51.779 74.92 50.472C85.881 44.372 96.809 37.558 108.839 33.996C120.933 30.375 134.093 30.068 146.901 29.662C147.492 29.641 147.988 29.176 148.029 28.574C148.073 27.93 147.586 27.373 146.943 27.33C133.997 26.453 120.616 26.485 107.672 28.996C97.76 30.885 88.26 34.455 78.848 38.096L80.331 29.049L96.52 16.441C97.117 15.976 97.976 16.068 98.461 16.649L104.177 23.495C104.252 23.583 104.343 23.68 104.43 23.76C105.571 24.812 107.651 24.957 108.402 23.598C109.734 21.186 113.436 14.407 114.657 12.17C114.903 11.719 115.373 11.444 115.886 11.443L130.694 11.437C131.254 11.437 131.761 11.77 131.984 12.284L135.391 20.166C135.744 20.979 136.595 21.649 137.516 21.471C141.964 20.607 154.819 18.125 157.516 17.604C157.841 17.541 158.174 17.596 158.464 17.758L174.692 26.83C175.557 27.314 175.663 28.518 174.894 29.144L163.894 38.111C163.598 38.352 163.217 38.462 162.838 38.417L144.727 36.228L144.419 36.191C143.851 36.123 143.257 36.243 142.737 36.574C141.541 37.335 141.465 38.784 141.948 40.117C142.534 41.734 144.187 46.212 144.978 48.354C145.225 49.022 144.932 49.769 144.298 50.092L132.509 56.092C132.063 56.319 131.53 56.291 131.11 56.02L113.182 44.428L112.785 44.171C112.367 43.903 111.843 43.802 111.323 43.933C110.326 44.185 109.993 45.166 109.973 46.195C109.917 49.112 109.785 57.708 109.736 60.919C109.725 61.624 109.194 62.208 108.493 62.289L94.025 63.963L70.746 57.132L70.722 57.125C70.002 56.916 69.203 56.859 68.365 56.997C66.36 57.327 64.809 58.95 64.428 60.946V60.949C63.965 63.644 63.641 66.133 63.34 68.722C63.046 71.288 62.807 73.857 62.625 76.432C62.26 81.582 62.115 86.758 62.281 91.961C62.459 97.163 62.925 102.398 63.986 107.625C65.038 112.834 66.699 118.099 69.65 122.964L69.686 123.025C70.483 124.336 72.062 125.043 73.634 124.665L73.638 124.664C73.914 124.571 73.999 124.517 74.162 124.444L74.574 124.233C74.839 124.09 75.092 123.941 75.341 123.786C75.837 123.476 76.31 123.138 76.764 122.77C77.67 122.037 78.508 121.17 79.181 120.154C79.855 119.147 80.337 117.969 80.507 116.791C80.692 115.612 80.554 114.467 80.268 113.46L80.247 113.384C80.1 112.867 79.632 112.482 79.066 112.464C78.365 112.442 77.779 112.992 77.757 113.693C77.709 115.212 77.086 116.409 76.046 117.234C75.492 117.682 74.828 118.043 74.106 118.312C74.102 118.31 74.099 118.309 74.095 118.308C72.437 114.606 71.46 110.524 70.913 106.368C70.272 101.613 70.154 96.741 70.312 91.872C70.479 87 70.939 82.118 71.609 77.264C72.024 74.247 72.523 71.24 73.099 68.258L92.18 73.857C92.798 74.035 93.486 74.105 94.165 74.026C94.165 74.026 111.141 71.883 116.623 71.208C118.948 70.922 120.194 68.234 119.562 65.979L115.921 52.992L128.326 66.06L128.327 66.061C129.818 67.295 131.96 67.604 133.795 66.67C133.795 66.67 150.162 57.913 155.67 54.949C157.526 53.95 157.37 51.129 155.962 49.561L149.096 41.907C149.096 41.907 160.588 45.247 164.368 46.338C165.343 46.62 166.426 46.117 167.188 45.332L182.727 29.324L182.728 29.323L182.892 29.16C183.193 28.856 183.423 28.466 183.539 28.005C183.836 26.831 183.164 25.622 182.06 25.126Z" fill="white"/>
<path d="M143.168 111.867L86.475 79.135C84.083 77.754 81.026 78.573 79.645 80.965C78.264 83.357 79.083 86.414 81.475 87.795L135.668 119.084V178.774L83.975 208.619L32.282 178.774V119.084L42.38 113.254C44.772 111.873 45.591 108.816 44.21 106.424C42.83 104.033 39.772 103.213 37.38 104.594L24.782 111.867C23.235 112.76 22.282 114.411 22.282 116.197V181.661C22.282 183.447 23.235 185.098 24.782 185.991L81.475 218.722C82.248 219.168 83.112 219.392 83.975 219.392C84.838 219.392 85.702 219.168 86.475 218.722L143.168 185.991C144.715 185.097 145.668 183.447 145.668 181.661V116.198C145.668 114.411 144.715 112.76 143.168 111.867Z" fill="white"/>
<path d="M40.898 98.472C42.715 98.225 44.363 98.403 45.79 99.089C47.214 99.754 48.484 101.014 49.25 102.554C49.44 102.934 49.595 103.325 49.711 103.704L50.258 105.622C50.627 106.901 51.02 108.172 51.421 109.439C52.049 111.407 52.717 113.336 53.435 115.29C52.916 115.812 52.424 116.33 51.921 116.876C51.014 117.868 50.141 118.889 49.304 119.943C47.626 122.047 46.086 124.281 44.712 126.652C41.976 131.38 39.886 136.748 39.286 142.608C38.985 145.526 39.092 148.543 39.622 151.503C40.161 154.463 41.135 157.347 42.442 160.032C45.076 165.416 48.942 169.901 53.136 173.659C53.656 174.121 54.3 174.494 55.011 174.702L55.168 174.748L55.17 174.749C57.276 175.285 58.843 175.184 60.251 175.036C60.693 174.982 61.114 174.911 61.529 174.832L62.067 175.216C63.061 175.906 64.065 176.569 65.083 177.206C67.118 178.482 69.207 179.666 71.361 180.748C75.666 182.906 80.235 184.686 85.101 185.749C89.95 186.794 95.172 187.101 100.274 185.985C101.489 185.729 102.683 185.381 103.85 184.962C105.082 185.48 106.399 185.856 107.781 186.023C109.888 186.285 112.136 186.004 114.279 185.011C115.385 184.493 116.303 183.773 117.11 182.953C117.921 182.125 118.581 181.153 119.075 180.131C120.032 178.058 120.266 175.833 120.011 173.81C119.917 173.062 119.748 172.346 119.545 171.648C120.514 169.887 121.292 168.027 121.82 166.109C123.2 161.232 123.165 156.205 122.326 151.519C121.482 146.814 119.889 142.37 117.848 138.202C115.88 134.235 113.539 130.488 110.65 127.092C110.67 127.042 110.687 126.996 110.711 126.942L111.301 125.637C111.725 124.671 112.041 123.465 111.964 122.246C111.905 121.024 111.481 119.885 110.95 118.928C110.429 117.974 109.878 117.188 109.295 116.401C106.958 113.307 104.25 110.576 101.186 108.185C98.122 105.811 94.674 103.786 90.805 102.538C86.96 101.278 82.635 100.888 78.481 101.753L78.426 101.764C78.347 101.781 78.268 101.801 78.189 101.824C76.599 102.297 75.693 103.969 76.166 105.559C76.639 107.149 78.311 108.055 79.901 107.582C82.914 106.687 86.195 106.621 89.419 107.416C92.643 108.198 95.781 109.715 98.68 111.647C101.575 113.581 104.281 115.943 106.579 118.571C107.143 119.223 107.695 119.918 108.105 120.554C108.489 121.188 108.718 121.824 108.766 122.448C108.818 123.074 108.694 123.707 108.402 124.433C108.262 124.801 108.071 125.174 107.842 125.639C107.731 125.876 107.61 126.133 107.499 126.496C107.4 126.847 107.266 127.387 107.466 128.094L107.467 128.097C107.508 128.246 107.578 128.395 107.677 128.526L107.761 128.638C110.331 132.052 112.394 135.937 114.007 139.924C115.609 143.921 116.741 148.092 117.165 152.251C117.594 156.402 117.251 160.549 115.898 164.217C115.79 164.515 115.664 164.803 115.543 165.093C115.184 164.751 114.814 164.426 114.43 164.125C114.197 163.945 113.885 163.863 113.576 163.933C113.026 164.058 112.682 164.604 112.806 165.154L112.868 165.429C113.135 166.606 113.389 167.679 113.563 168.711C113.646 169.205 113.717 169.693 113.751 170.172C113.845 170.891 113.872 171.597 113.83 172.266C113.821 172.928 113.741 173.556 113.643 174.128C113.415 175.275 113.039 176.199 112.563 176.808C112.343 177.128 112.082 177.363 111.826 177.592C111.689 177.7 111.554 177.809 111.394 177.9C111.218 178.014 111.165 178.038 111.009 178.119C110.439 178.385 109.523 178.583 108.509 178.589C107.491 178.573 106.349 178.411 105.144 178.049C104.311 177.787 103.463 177.424 102.595 176.988C100.951 176.163 99.233 175.064 97.387 173.802L97.079 173.591C96.625 173.282 96.026 173.209 95.487 173.448C94.658 173.817 94.286 174.787 94.654 175.616C95.03 176.462 95.473 177.292 95.977 178.097C93.13 178.126 90.22 177.638 87.362 176.793C83.548 175.653 79.823 173.889 76.281 171.762C74.509 170.698 72.781 169.538 71.111 168.307C70.276 167.692 69.456 167.057 68.658 166.409L67.484 165.428C67.177 165.164 66.827 164.855 66.577 164.622C66.498 164.516 66.437 164.401 66.349 164.299C65.292 163.084 64.632 161.395 64.552 159.193C64.46 157.011 65.008 154.503 65.881 152.05C67.66 147.097 70.78 142.311 74.431 138.056C78.106 133.796 82.479 130.033 87.386 127.314C89.842 125.975 92.457 124.924 95.156 124.452C97.844 123.978 100.632 124.123 103.149 125.2L103.173 125.21C103.677 125.426 104.274 125.236 104.556 124.75C104.86 124.225 104.681 123.552 104.156 123.248C101.348 121.622 97.996 121.047 94.805 121.238C91.593 121.421 88.495 122.275 85.579 123.446C82.659 124.625 79.902 126.134 77.289 127.847C74.673 129.56 72.206 131.493 69.9 133.616C65.306 137.877 61.157 142.741 58.16 148.697C56.696 151.686 55.463 154.96 55.108 158.73C55.088 159.292 55.037 159.845 55.016 160.408C53.525 158.829 52.203 157.142 51.126 155.334C48.91 151.649 47.772 147.472 47.857 143.104C47.93 138.737 49.184 134.246 51.19 130.009C52.192 127.888 53.371 125.819 54.698 123.834C55.359 122.841 56.058 121.869 56.786 120.923C57.5 119.998 58.312 119.018 59.014 118.256L59.216 118.037C59.9 117.291 60.155 116.198 59.782 115.183C59.232 112.795 58.737 110.247 58.317 107.757C58.107 106.504 57.906 105.251 57.729 103.995L57.468 102.109C57.318 101.219 57.091 100.366 56.8 99.542C55.641 96.271 53.41 93.338 50.355 91.373C47.311 89.383 43.625 88.603 40.284 88.689L40.108 88.693C39.933 88.698 39.756 88.712 39.579 88.736C36.89 89.101 35.007 91.577 35.372 94.266C35.737 96.955 38.21 98.838 40.898 98.472Z" fill="white"/>
</svg>
